<svg xmlns="http://www.w3.org/2000/svg" xmlns:xlink="http://www.w3.org/1999/xlink" version="1.1" id="Layer_1" x="0px" y="0px" style="enable-background:new 0 0 512 512;" xml:space="preserve" viewBox="0 0 512 512">
    <g>
        <g>
            <path fill="#FE251B" d="M368,0c-43.904,0-84.757,19.797-112,53.632C228.757,19.797,187.904,0,144,0C64.597,0,0,64.597,0,144    c0,30.08,9.301,58.987,26.923,83.669l194.389,266.496c0.235,0.299,0.448,0.555,0.683,0.832C230.059,505.664,242.688,512,256,512    s25.92-6.336,34.005-17.003c0.235-0.256,0.448-0.533,0.683-0.832l194.453-266.581C502.699,202.987,512,174.08,512,144    C512,64.597,447.403,0,368,0z M450.432,202.773l-181.44,248.725c-0.427,0.533-0.853,1.045-1.344,1.493l-2.987,4.139    c-2.005,2.795-5.227,4.437-8.661,4.437c0,0,0,0-0.021,0c-3.435,0-6.656-1.664-8.64-4.459l-2.923-4.053    c-0.512-0.469-1.024-1.003-1.429-1.557L61.376,202.517C49.131,185.344,42.667,165.141,42.667,144    C42.667,88.128,88.128,42.667,144,42.667c34.475,0,66.283,17.387,85.12,46.528L256,130.773l26.88-41.579    c18.837-29.141,50.645-46.528,85.12-46.528c55.872,0,101.333,45.461,101.333,101.333    C469.333,165.141,462.784,185.451,450.432,202.773z"></path>
        </g>
    </g>
    <g></g>
    <g></g>
    <g></g>
    <g></g>
    <g></g>
    <g></g>
    <g></g>
    <g></g>
    <g></g>
    <g></g>
    <g></g>
    <g></g>
    <g></g>
    <g></g>
    <g></g>
</svg>