<svg xmlns="http://www.w3.org/2000/svg" xmlns:xlink="http://www.w3.org/1999/xlink" version="1.1" id="Layer_1" x="0px" y="0px" style="enable-background:new 0 0 512 512;" xml:space="preserve" viewBox="0 0 512 512">
    <g>
        <g>
            <path fill="#FE251B" d="M368,0c-43.904,0-84.757,19.797-112,53.632C228.757,19.797,187.904,0,144,0C64.597,0,0,64.597,0,144    c0,30.08,9.301,58.987,26.923,83.669l194.389,266.496c0.235,0.299,0.448,0.555,0.683,0.832C230.059,505.664,242.688,512,256,512    s25.92-6.336,34.005-17.003c0.235-0.256,0.448-0.533,0.683-0.832l194.453-266.581C502.699,202.987,512,174.08,512,144    C512,64.597,447.403,0,368,0z"></path>
        </g>
    </g>
    <g></g>
    <g></g>
    <g></g>
    <g></g>
    <g></g>
    <g></g>
    <g></g>
    <g></g>
    <g></g>
    <g></g>
    <g></g>
    <g></g>
    <g></g>
    <g></g>
    <g></g>
</svg>